# xmcd
#
# Track frame offsets:
#	150
#	13592
#	24980
#	36025
#	46451
#	58792
#	71568
#	87509
#	96771
#	111628
#	122426
#	133365
#	148210
#	163291
#	181549
#
# Disc length: 2592 seconds
#
# Revision: 1
# Processed by: cddbd v1.4PL0 Copyright (c) Steve Scherf et al.
# Submitted via: audiograbber 1.80
#
DISCID=d70a1e0f
DTITLE=Στράτος Διονυσίου - #2
DYEAR=1900
DGENRE=
TTITLE0=Ένα λεπτό περιπτερά
TTITLE1=Ένας αητός γκρεμίστηκε
TTITLE2=Ένα βράδυ που θα πιώ
TTITLE3=Ζήσαμε και δεν ζήσαμε
TTITLE4=Έτσι ήμουν περαστικός
TTITLE5=Ζητώ ακρόαση θεού
TTITLE6=Γράμμα θα στείλω στο θεό
TTITLE7=Ήταν ψεύτικα
TTITLE8=Η αχάριστη
TTITLE9=Θα ρίξω ροδοζάχαρη
TTITLE10=Και πάλι μάγκας θα' σαι
TTITLE11=Και τα λέω σε σένα
TTITLE12=Και τι δεν κάνω
TTITLE13=Και τότε μόνος
TTITLE14=Έξω απ' άδικο
EXTD=
EXTT0=
EXTT1=
EXTT2=
EXTT3=
EXTT4=
EXTT5=
EXTT6=
EXTT7=
EXTT8=
EXTT9=
EXTT10=
EXTT11=
EXTT12=
EXTT13=
EXTT14=
PLAYORDER=
